OpenSim_Sub09_CSBaseline_GRF.mot
version=1
nRows=40
nColumns=19
inDegrees=no
endheader
time	lFx	lFy	lFz	lCOPx	lCOPy	lCOPz	rFx	rFy	rFz	rCOPx	rCOPy	rCOPz	lMx	lMy	lMz	rMx	rMy	rMz
29.20000000	-0.68904953	0.67236911	-1.91440001	-0.00193177	0	0.00116332	4.01949237	726.54346875	-74.19891410	0.98796044	0	-0.41624988	0	0.00849810	0	0	3.25793871	-0.00000000
29.21000000	-0.74198164	0.15850723	-1.89637060	-0.01076066	0	0.00652519	5.97748376	727.28387205	-73.85781681	0.98371830	0	-0.41623813	0	0.01465970	0	0	3.36252289	0
29.22000000	-1.12375889	-0.78403483	-1.84946522	-0.02559035	0	0.01554849	8.08782138	727.36512503	-73.47822968	0.97954105	0	-0.41614681	0	0.01261823	0	0	3.52450898	0.00000000
29.23000000	-2.00045522	-1.79771838	-1.69638882	-0.03747422	0	0.02281795	10.41476131	727.07663676	-73.21900380	0.97535141	0	-0.41593787	0	-0.01699043	0	0	3.71652629	0
29.24000000	-3.17998920	-1.22024173	-1.24338391	-0.01759292	0	0.01083895	12.75024254	726.36789231	-73.18411429	0.97115195	0	-0.41563137	0	-0.09981820	0	0	3.84308898	-0.00000000
29.25000000	-3.53165835	4.65570359	-0.35006316	0.08828346	0	-0.05336810	14.97042929	724.89276277	-73.24746630	0.96707001	0	-0.41529056	0	-0.24090451	0	0	3.89553578	0
29.26000000	-0.98726857	21.55025943	0.81523283	0.33675724	0	-0.20434572	16.93836066	722.64192742	-73.16248911	0.96313046	0	-0.41492901	0	-0.35839507	0	0	3.89930554	0
29.27000000	4.36809351	56.35590667	1.37085632	0.69614642	0	-0.42317259	18.76519439	719.98730358	-72.70577700	0.95919589	0	-0.41455915	0	-0.18368808	0	0	3.83017916	0
29.28000000	8.09345001	112.47161107	0.58020497	0.98190868	0	-0.59739893	20.80752406	717.33673304	-71.79474463	0.95508151	0	-0.41427414	0	0.69873197	0	0	3.75387111	0
29.29000000	4.91270119	185.53479016	-0.91076059	1.11761231	0	-0.68015334	23.42657411	715.12695438	-70.39480858	0.95063324	0	-0.41414618	0	2.19470757	0	0	3.78234448	-0.00000000
29.30000000	-5.86077945	265.59160829	-1.19438428	1.15220571	0	-0.70082744	26.73324050	713.41010972	-68.37197052	0.94569749	0	-0.41421898	0	3.59914064	0	0	3.89785748	0
29.31000000	-19.64948162	343.51803007	1.59427658	1.14513184	0	-0.69637816	30.85170925	711.41258271	-65.82083483	0.94009742	0	-0.41448749	0	4.23982958	0	0	4.05309632	0
29.32000000	-32.17885907	413.73453338	7.96448770	1.13023026	0	-0.68844423	35.55910150	707.97579609	-63.26303531	0.93409137	0	-0.41482956	0	3.85609785	0	0	4.20506506	0
29.33000000	-42.48665519	471.87605582	17.17170200	1.11837376	0	-0.68414078	40.37067855	702.06851354	-61.04944273	0.92795636	0	-0.41510345	0	2.60265447	0	0	4.30534054	0
29.34000000	-49.37450230	515.68968814	26.54720747	1.11002838	0	-0.68334957	44.94895091	693.06127371	-59.25103719	0.92177531	0	-0.41523296	0	1.14851600	0	0	4.27667892	0
29.35000000	-52.81771291	547.25139745	34.67110047	1.10381327	0	-0.68441238	49.15095994	680.53906098	-58.00079694	0.91550887	0	-0.41525574	0	-0.14223281	0	0	4.12562675	-0.00000000
29.36000000	-54.56922789	571.66971955	42.48815054	1.09839034	0	-0.68605670	52.92738161	664.26173794	-57.18212289	0.90928206	0	-0.41520031	0	-1.41336224	0	0	3.84272523	-0.00000000
29.37000000	-55.22303905	594.23651076	51.02310934	1.09316527	0	-0.68766208	56.12721575	644.13722720	-56.30657466	0.90329568	0	-0.41505283	0	-2.82931790	0	0	3.46158448	0.00000000
29.38000000	-54.67614088	617.33533809	59.17819013	1.08788335	0	-0.68890950	58.67393220	620.17950936	-54.78697557	0.89762669	0	-0.41481545	0	-4.17277815	0	0	3.07081857	0
29.39000000	-52.87134476	640.66674342	65.29715802	1.08243203	0	-0.68968770	60.63919824	592.20641702	-52.17614827	0.89234000	0	-0.41458049	0	-5.15792241	0	0	2.75138540	0
29.40000000	-49.90757329	662.60435530	68.94904208	1.07664662	0	-0.69005143	61.95600466	560.04045977	-48.12745511	0.88740927	0	-0.41453230	0	-5.68082410	0	0	2.58080731	0
29.41000000	-45.99255569	681.69607636	70.53927361	1.07056487	0	-0.69015168	62.11672149	524.08311393	-42.49400657	0.88264897	0	-0.41481991	0	-5.77961278	0	0	2.64272795	-0.00000000
29.42000000	-41.66376636	697.26069168	70.75552597	1.06425808	0	-0.69009228	60.69853059	484.50010263	-35.46306516	0.87811048	0	-0.41547525	0	-5.62645660	0	0	2.84415930	0
29.43000000	-37.59848060	709.44514804	69.95903539	1.05803286	0	-0.68994033	57.84707408	440.69389250	-27.48788628	0.87395528	0	-0.41636249	0	-5.29667531	0	0	3.04537193	0.00000000
29.44000000	-34.21639338	718.52084768	68.28949063	1.05214013	0	-0.68976090	53.90400972	392.26305847	-19.49538836	0.87027979	0	-0.41729482	0	-4.87088244	0	0	3.12682620	0
29.45000000	-31.37105272	724.38340021	66.09842658	1.04668197	0	-0.68959538	48.80050978	339.92382629	-12.46276719	0.86739309	0	-0.41824660	0	-4.48406765	0	0	3.02155873	0
29.46000000	-28.74891208	726.87022726	63.84143000	1.04152992	0	-0.68946388	42.18004733	285.46680079	-6.69903884	0.86624163	0	-0.41959003	0	-4.22438474	0	0	2.68970181	0
29.47000000	-26.08953160	726.03929706	61.77127961	1.03638868	0	-0.68936458	33.98676773	231.74995552	-2.58040868	0.86851362	0	-0.42222338	0	-4.03236242	0	0	2.14642927	0
29.48000000	-23.34592338	721.96898584	60.02040991	1.03107929	0	-0.68929509	24.76771482	181.97666219	-0.49713656	0.87471923	0	-0.42697160	0	-3.91855976	0	0	1.54838529	0
29.49000000	-20.51575666	714.61620456	58.70835151	1.02547504	0	-0.68925739	15.26999401	138.94728518	-0.09785728	0.88201229	0	-0.43265309	0	-3.90945912	0	0	1.04232466	0
29.50000000	-17.68985839	704.10285841	57.83201496	1.01963504	0	-0.68933567	6.13226914	104.12286825	-0.84526890	0.87867548	0	-0.43305402	0	-4.00796073	0	0	0.68575048	-0.00000000
29.51000000	-15.13903487	691.40439810	57.39097324	1.01379007	0	-0.68962230	-1.88990117	77.03758211	-2.14794918	0.83699795	0	-0.41326722	0	-4.27752169	0	0	0.47663013	0.00000000
29.52000000	-13.17666716	678.20631818	57.19053952	1.00832966	0	-0.69012903	-7.76273730	55.98604897	-3.55032464	0.71485976	0	-0.35138409	0	-4.71646802	0	0	0.34748114	0
29.53000000	-11.80340545	666.16338472	56.84171244	1.00322235	0	-0.69076264	-11.09618767	39.18797239	-4.32624961	0.49020547	0	-0.23703072	0	-5.16871073	0	0	0.21335497	0
29.54000000	-10.58964437	656.32544555	56.07981516	0.99817210	0	-0.69138931	-12.29531702	25.63728606	-4.16699588	0.23604043	0	-0.11096127	0	-5.51477564	0	0	0.10463517	-0.00000000
29.55000000	-9.07403248	649.30149231	54.89946714	0.99297815	0	-0.69186866	-10.63145322	14.55620590	-3.12672433	0.06224456	0	-0.02746130	0	-5.68919645	0	0	0.02991864	0.00000000
29.56000000	-7.16818518	645.38617246	53.43149523	0.98779879	0	-0.69220557	-6.20707658	6.00514904	-1.46528568	-0.01203700	0	0.00711017	0	-5.67422267	0	0	-0.00345954	-0.00000000
29.57000000	-5.16055682	644.25801526	51.93997537	0.98283190	0	-0.69252281	-2.26332543	1.03115745	-0.03486085	-0.02612531	0	0.01297782	0	-5.55803724	0	0	-0.01068095	0.00000000
29.58000000	-3.16746995	645.13676869	50.74421500	0.97817566	0	-0.69297165	-0.25446948	-0.83570844	0.24087915	-0.01790055	0	0.00859394	0	-5.45478626	0	0	-0.00770383	-0.00000000
29.59000000	-1.17986805	647.27585986	50.09292195	0.97380314	0	-0.69368438	0.30710612	-1.01757764	0.19124256	-0.00755034	0	0.00351009	0	-5.44934811	0	0	-0.00339779	-0.00000000
